<svg width="1280" height="720" viewBox="0 0 1280 720" fill="none" xmlns="http://www.w3.org/2000/svg">
  <rect width="1280" height="720" fill="#14110B"/>
  <rect x="18" y="16" width="143" height="44" rx="4" fill="#241C10"/>
  <rect x="175" y="16" width="86" height="44" rx="4" fill="#241C10"/>
  <rect x="1110" y="16" width="110" height="44" rx="4" fill="#241C10"/>
  <rect x="1236" y="16" width="26" height="44" rx="4" fill="#241C10"/>
  <rect x="0" y="73" width="1280" height="6" fill="#A67B15" fill-opacity="0.75"/>
  <g opacity="0.28" filter="url(#blur)">
    <rect x="46" y="116" width="820" height="515" fill="#EFE8D8"/>
    <rect x="886" y="116" width="348" height="515" fill="#1E1A14"/>
    <rect x="109" y="174" width="197" height="92" fill="#1E1A14"/>
    <rect x="166" y="333" width="175" height="95" fill="#F1EEE6" stroke="#1E1A14" stroke-width="4"/>
    <rect x="166" y="497" width="175" height="95" fill="#F1EEE6" stroke="#1E1A14" stroke-width="4"/>
    <rect x="454" y="488" width="183" height="95" fill="#1E1A14"/>
    <path d="M306 220L166 333" stroke="#906819" stroke-width="3" stroke-dasharray="7 8"/>
    <path d="M341 380L454 535" stroke="#906819" stroke-width="3" stroke-dasharray="7 8"/>
    <path d="M341 546L454 535" stroke="#906819" stroke-width="3" stroke-dasharray="7 8"/>
    <rect x="928" y="170" width="197" height="180" fill="#EEE8DD"/>
    <circle cx="962" cy="200" r="2.5" fill="#3B82F6"/>
    <circle cx="1010" cy="231" r="2.5" fill="#3B82F6"/>
    <circle cx="1074" cy="218" r="2.5" fill="#3B82F6"/>
    <circle cx="1137" cy="206" r="2.5" fill="#D97706"/>
    <circle cx="980" cy="287" r="2.5" fill="#D97706"/>
    <circle cx="1034" cy="255" r="2.5" fill="#D97706"/>
    <circle cx="1092" cy="304" r="2.5" fill="#3B82F6"/>
    <rect x="1149" y="175" width="61" height="52" rx="3" fill="#2A2317"/>
    <rect x="1149" y="244" width="61" height="52" rx="3" fill="#2A2317"/>
    <rect x="1079" y="309" width="131" height="64" rx="3" fill="#5B4410"/>
  </g>
  <text x="640" y="246" text-anchor="middle" fill="#C99819" font-family="Arial, Helvetica, sans-serif" font-size="25" font-weight="700" letter-spacing="8">NEURAL NETWORK STRATEGY GAME</text>
  <text x="640" y="442" text-anchor="middle" fill="#C99819" font-family="Arial, Helvetica, sans-serif" font-size="176" font-weight="700">Node x Node</text>
  <rect x="0" y="0" width="1280" height="720" fill="url(#vignette)"/>
  <defs>
    <filter id="blur" x="6" y="76" width="1268" height="595" filterUnits="userSpaceOnUse" color-interpolation-filters="sRGB">
      <feGaussianBlur stdDeviation="8"/>
    </filter>
    <radialGradient id="vignette" cx="0" cy="0" r="1" gradientUnits="userSpaceOnUse" gradientTransform="translate(640 360) rotate(90) scale(420 720)">
      <stop offset="0.6" stop-color="#000000" stop-opacity="0"/>
      <stop offset="1" stop-color="#000000" stop-opacity="0.38"/>
    </radialGradient>
  </defs>
</svg>
